<svg xmlns="http://www.w3.org/2000/svg" xmlns:xlink="http://www.w3.org/1999/xlink" width="1080" zoomAndPan="magnify" viewBox="0 0 810 809.999993" height="1080" preserveAspectRatio="xMidYMid meet" version="1.0"><defs><clipPath id="67c4b62e1a"><path d="M 160.957031 167.707031 L 649.042969 167.707031 L 649.042969 655.792969 L 160.957031 655.792969 Z M 160.957031 167.707031 " clip-rule="nonzero"/></clipPath><clipPath id="f56ceb3171"><path d="M 405 167.707031 C 270.21875 167.707031 160.957031 276.96875 160.957031 411.75 C 160.957031 546.53125 270.21875 655.792969 405 655.792969 C 539.78125 655.792969 649.042969 546.53125 649.042969 411.75 C 649.042969 276.96875 539.78125 167.707031 405 167.707031 Z M 405 167.707031 " clip-rule="nonzero"/></clipPath><clipPath id="605bcc5fb6"><path d="M 227.441406 234.191406 L 582.558594 234.191406 L 582.558594 589.308594 L 227.441406 589.308594 Z M 227.441406 234.191406 " clip-rule="nonzero"/></clipPath><clipPath id="bafcc89255"><path d="M 405 234.191406 C 306.9375 234.191406 227.441406 313.6875 227.441406 411.75 C 227.441406 509.8125 306.9375 589.308594 405 589.308594 C 503.0625 589.308594 582.558594 509.8125 582.558594 411.75 C 582.558594 313.6875 503.0625 234.191406 405 234.191406 Z M 405 234.191406 " clip-rule="nonzero"/></clipPath></defs><path fill="#9f9f9f" d="M 771.980469 418.496094 C 771.980469 424.5 771.832031 430.503906 771.539062 436.503906 C 771.242188 442.5 770.800781 448.488281 770.210938 454.464844 C 769.625 460.441406 768.886719 466.402344 768.007812 472.34375 C 767.125 478.285156 766.097656 484.199219 764.929688 490.089844 C 763.757812 495.980469 762.441406 501.839844 760.980469 507.664062 C 759.523438 513.492188 757.921875 519.277344 756.175781 525.023438 C 754.433594 530.773438 752.550781 536.472656 750.527344 542.128906 C 748.503906 547.78125 746.34375 553.386719 744.042969 558.933594 C 741.746094 564.484375 739.3125 569.972656 736.746094 575.402344 C 734.175781 580.832031 731.476562 586.191406 728.644531 591.488281 C 725.816406 596.785156 722.855469 602.011719 719.769531 607.164062 C 716.679688 612.3125 713.46875 617.386719 710.132812 622.378906 C 706.792969 627.375 703.335938 632.28125 699.757812 637.105469 C 696.183594 641.929688 692.488281 646.664062 688.675781 651.308594 C 684.867188 655.949219 680.945312 660.496094 676.914062 664.945312 C 672.878906 669.398438 668.738281 673.746094 664.492188 677.992188 C 660.246094 682.238281 655.898438 686.378906 651.445312 690.414062 C 646.996094 694.445312 642.449219 698.367188 637.808594 702.175781 C 633.164062 705.988281 628.429688 709.683594 623.605469 713.257812 C 618.78125 716.835938 613.875 720.292969 608.878906 723.632812 C 603.886719 726.96875 598.8125 730.179688 593.664062 733.269531 C 588.511719 736.355469 583.285156 739.316406 577.988281 742.144531 C 572.691406 744.976562 567.332031 747.675781 561.902344 750.246094 C 556.472656 752.8125 550.984375 755.246094 545.433594 757.542969 C 539.886719 759.84375 534.28125 762.003906 528.628906 764.027344 C 522.972656 766.050781 517.273438 767.933594 511.523438 769.675781 C 505.777344 771.421875 499.992188 773.023438 494.164062 774.480469 C 488.339844 775.941406 482.480469 777.253906 476.589844 778.425781 C 470.699219 779.597656 464.785156 780.625 458.84375 781.507812 C 452.902344 782.386719 446.941406 783.125 440.964844 783.710938 C 434.988281 784.300781 429 784.742188 423.003906 785.039062 C 417.003906 785.332031 411 785.480469 404.996094 785.480469 C 398.988281 785.480469 392.988281 785.332031 386.988281 785.039062 C 380.988281 784.742188 375 784.300781 369.023438 783.710938 C 363.046875 783.125 357.089844 782.386719 351.148438 781.507812 C 345.207031 780.625 339.289062 779.597656 333.398438 778.429688 C 327.507812 777.257812 321.652344 775.941406 315.824219 774.480469 C 310 773.023438 304.210938 771.421875 298.464844 769.675781 C 292.71875 767.933594 287.015625 766.050781 281.363281 764.027344 C 275.707031 762.003906 270.105469 759.84375 264.554688 757.542969 C 259.007812 755.246094 253.519531 752.8125 248.089844 750.246094 C 242.660156 747.675781 237.296875 744.976562 232 742.144531 C 226.703125 739.316406 221.480469 736.355469 216.328125 733.269531 C 211.175781 730.179688 206.101562 726.96875 201.109375 723.632812 C 196.117188 720.292969 191.207031 716.835938 186.382812 713.257812 C 181.558594 709.683594 176.824219 705.988281 172.183594 702.175781 C 167.539062 698.367188 162.992188 694.445312 158.542969 690.414062 C 154.09375 686.378906 149.746094 682.238281 145.5 677.992188 C 141.25 673.746094 137.109375 669.398438 133.078125 664.945312 C 129.042969 660.496094 125.121094 655.949219 121.3125 651.308594 C 117.503906 646.664062 113.808594 641.929688 110.230469 637.105469 C 106.652344 632.28125 103.195312 627.375 99.859375 622.378906 C 96.523438 617.386719 93.308594 612.3125 90.222656 607.164062 C 87.132812 602.011719 84.175781 596.785156 81.34375 591.488281 C 78.511719 586.191406 75.8125 580.832031 73.246094 575.402344 C 70.675781 569.972656 68.246094 564.484375 65.945312 558.933594 C 63.648438 553.386719 61.488281 547.78125 59.464844 542.128906 C 57.441406 536.472656 55.558594 530.773438 53.8125 525.023438 C 52.070312 519.277344 50.46875 513.492188 49.007812 507.664062 C 47.550781 501.839844 46.234375 495.980469 45.0625 490.089844 C 43.890625 484.199219 42.863281 478.285156 41.984375 472.34375 C 41.101562 466.402344 40.367188 460.441406 39.777344 454.464844 C 39.191406 448.488281 38.746094 442.5 38.453125 436.503906 C 38.160156 430.503906 38.011719 424.5 38.011719 418.496094 C 38.011719 412.488281 38.160156 406.488281 38.453125 400.488281 C 38.746094 394.488281 39.191406 388.5 39.777344 382.523438 C 40.367188 376.546875 41.101562 370.589844 41.984375 364.648438 C 42.863281 358.707031 43.890625 352.789062 45.0625 346.898438 C 46.234375 341.007812 47.550781 335.152344 49.007812 329.324219 C 50.46875 323.5 52.070312 317.710938 53.8125 311.964844 C 55.558594 306.21875 57.441406 300.515625 59.464844 294.863281 C 61.488281 289.207031 63.648438 283.605469 65.945312 278.054688 C 68.246094 272.507812 70.675781 267.019531 73.246094 261.589844 C 75.8125 256.160156 78.511719 250.796875 81.34375 245.5 C 84.175781 240.203125 87.132812 234.980469 90.222656 229.828125 C 93.308594 224.675781 96.523438 219.601562 99.859375 214.609375 C 103.195312 209.617188 106.652344 204.707031 110.230469 199.882812 C 113.808594 195.058594 117.503906 190.324219 121.3125 185.683594 C 125.121094 181.039062 129.042969 176.492188 133.078125 172.042969 C 137.109375 167.59375 141.25 163.246094 145.5 159 C 149.746094 154.75 154.09375 150.609375 158.542969 146.578125 C 162.992188 142.542969 167.539062 138.621094 172.183594 134.8125 C 176.824219 131.003906 181.558594 127.308594 186.382812 123.730469 C 191.207031 120.152344 196.117188 116.695312 201.109375 113.359375 C 206.101562 110.023438 211.175781 106.808594 216.328125 103.722656 C 221.480469 100.632812 226.703125 97.675781 232 94.84375 C 237.296875 92.011719 242.660156 89.3125 248.089844 86.746094 C 253.519531 84.175781 259.007812 81.746094 264.554688 79.445312 C 270.105469 77.148438 275.707031 74.988281 281.363281 72.964844 C 287.015625 70.941406 292.71875 69.058594 298.464844 67.3125 C 304.210938 65.570312 310 63.96875 315.824219 62.507812 C 321.652344 61.050781 327.507812 59.734375 333.398438 58.5625 C 339.289062 57.390625 345.207031 56.363281 351.148438 55.484375 C 357.089844 54.601562 363.046875 53.867188 369.023438 53.277344 C 375 52.691406 380.988281 52.246094 386.988281 51.953125 C 392.988281 51.660156 398.988281 51.511719 404.996094 51.511719 C 411 51.511719 417.003906 51.660156 423.003906 51.953125 C 429 52.246094 434.988281 52.691406 440.964844 53.277344 C 446.941406 53.867188 452.902344 54.601562 458.84375 55.484375 C 464.785156 56.363281 470.699219 57.390625 476.589844 58.5625 C 482.480469 59.734375 488.339844 61.050781 494.164062 62.507812 C 499.992188 63.96875 505.777344 65.570312 511.523438 67.3125 C 517.273438 69.058594 522.972656 70.941406 528.628906 72.964844 C 534.28125 74.988281 539.886719 77.148438 545.433594 79.445312 C 550.980469 81.746094 556.472656 84.175781 561.902344 86.746094 C 567.332031 89.3125 572.691406 92.011719 577.988281 94.84375 C 583.285156 97.675781 588.511719 100.632812 593.664062 103.722656 C 598.8125 106.808594 603.886719 110.023438 608.878906 113.359375 C 613.875 116.695312 618.78125 120.152344 623.605469 123.730469 C 628.429688 127.308594 633.164062 131.003906 637.808594 134.8125 C 642.449219 138.621094 646.996094 142.542969 651.445312 146.578125 C 655.898438 150.609375 660.246094 154.75 664.492188 159 C 668.738281 163.246094 672.878906 167.59375 676.914062 172.042969 C 680.945312 176.492188 684.867188 181.039062 688.675781 185.683594 C 692.488281 190.324219 696.183594 195.058594 699.757812 199.882812 C 703.335938 204.707031 706.792969 209.617188 710.132812 214.609375 C 713.46875 219.601562 716.679688 224.675781 719.769531 229.828125 C 722.855469 234.980469 725.816406 240.203125 728.644531 245.5 C 731.476562 250.796875 734.175781 256.160156 736.746094 261.589844 C 739.3125 267.019531 741.746094 272.507812 744.042969 278.054688 C 746.34375 283.605469 748.503906 289.207031 750.527344 294.863281 C 752.550781 300.515625 754.433594 306.21875 756.175781 311.964844 C 757.921875 317.710938 759.523438 323.5 760.980469 329.324219 C 762.441406 335.152344 763.753906 341.007812 764.925781 346.898438 C 766.097656 352.789062 767.125 358.707031 768.007812 364.648438 C 768.886719 370.589844 769.625 376.546875 770.210938 382.523438 C 770.800781 388.5 771.242188 394.488281 771.539062 400.488281 C 771.832031 406.488281 771.980469 412.488281 771.980469 418.496094 Z M 771.980469 418.496094 " fill-opacity="1" fill-rule="nonzero"/><g clip-path="url(#67c4b62e1a)"><g clip-path="url(#f56ceb3171)"><path fill="#49474f" d="M 160.957031 167.707031 L 649.042969 167.707031 L 649.042969 655.792969 L 160.957031 655.792969 Z M 160.957031 167.707031 " fill-opacity="1" fill-rule="nonzero"/></g></g><g clip-path="url(#605bcc5fb6)"><g clip-path="url(#bafcc89255)"><path fill="#9f9f9f" d="M 227.441406 234.191406 L 582.558594 234.191406 L 582.558594 589.308594 L 227.441406 589.308594 Z M 227.441406 234.191406 " fill-opacity="1" fill-rule="nonzero"/></g></g></svg>