<svg xmlns="http://www.w3.org/2000/svg" xmlns:xlink="http://www.w3.org/1999/xlink" width="1080" zoomAndPan="magnify" viewBox="0 0 810 809.999993" height="1080" preserveAspectRatio="xMidYMid meet" version="1.0"><defs><clipPath id="d43b99f48b"><path d="M 14 24.699219 L 778 24.699219 L 778 784 L 14 784 Z M 14 24.699219 " clip-rule="nonzero"/></clipPath><clipPath id="49993cff7e"><path d="M 95 101.796875 L 696 101.796875 L 696 698 L 95 698 Z M 95 101.796875 " clip-rule="nonzero"/></clipPath></defs><g clip-path="url(#d43b99f48b)"><path fill="#49474f" d="M 623.234375 20.519531 L 395.921875 247.832031 L 168.609375 20.519531 L 14.492188 174.632812 L 241.808594 401.949219 L 14.492188 629.261719 L 168.609375 783.34375 L 395.921875 556.027344 L 623.234375 783.34375 L 777.347656 629.261719 L 550.035156 401.949219 L 777.347656 174.632812 Z M 623.234375 20.519531 " fill-opacity="1" fill-rule="nonzero"/></g><g clip-path="url(#49993cff7e)"><path fill="#9f9f9f" d="M 574.203125 98.515625 L 395.625 277.09375 L 217.046875 98.515625 L 95.972656 219.585938 L 274.550781 398.164062 L 95.972656 576.742188 L 217.046875 697.789062 L 395.625 519.210938 L 574.203125 697.789062 L 695.273438 576.742188 L 516.695312 398.164062 L 695.273438 219.585938 Z M 574.203125 98.515625 " fill-opacity="1" fill-rule="nonzero"/></g></svg>