<svg xmlns="http://www.w3.org/2000/svg" xmlns:xlink="http://www.w3.org/1999/xlink" width="1080" zoomAndPan="magnify" viewBox="0 0 810 809.999993" height="1080" preserveAspectRatio="xMidYMid meet" version="1.0"><defs><clipPath id="29bddf198b"><path d="M 14 24.699219 L 778 24.699219 L 778 784 L 14 784 Z M 14 24.699219 " clip-rule="nonzero"/></clipPath><clipPath id="316b137623"><path d="M 147 153.175781 L 639 153.175781 L 639 643 L 147 643 Z M 147 153.175781 " clip-rule="nonzero"/></clipPath></defs><g clip-path="url(#29bddf198b)"><path fill="#ff5757" d="M 623.234375 20.519531 L 395.921875 247.832031 L 168.609375 20.519531 L 14.492188 174.632812 L 241.808594 401.949219 L 14.492188 629.261719 L 168.609375 783.34375 L 395.921875 556.027344 L 623.234375 783.34375 L 777.347656 629.261719 L 550.035156 401.949219 L 777.347656 174.632812 Z M 623.234375 20.519531 " fill-opacity="1" fill-rule="nonzero"/></g><g clip-path="url(#316b137623)"><path fill="#f7c7b7" d="M 539.488281 150.480469 L 392.949219 297.019531 L 246.410156 150.480469 L 147.0625 249.832031 L 293.597656 396.367188 L 147.0625 542.90625 L 246.410156 642.238281 L 392.949219 495.699219 L 539.488281 642.238281 L 638.839844 542.90625 L 492.300781 396.367188 L 638.839844 249.832031 Z M 539.488281 150.480469 " fill-opacity="1" fill-rule="nonzero"/></g></svg>